M48
; DRILL file KiCad 10.0.1 date 2026-04-27T10:12:54
; FORMAT={-:-/ absolute / metric / decimal}
; #@! TF.CreationDate,2026-04-27T10:12:54-05:00
; #@! TF.GenerationSoftware,Kicad,Pcbnew,10.0.1
; #@! TF.FileFunction,MixedPlating,1,2
FMAT,2
METRIC
; #@! TA.AperFunction,Plated,PTH,ViaDrill
T1C0.300
; #@! TA.AperFunction,Plated,PTH,ComponentDrill
T2C0.710
; #@! TA.AperFunction,Plated,PTH,ComponentDrill
T3C0.750
; #@! TA.AperFunction,Plated,PTH,ComponentDrill
T4C0.790
; #@! TA.AperFunction,Plated,PTH,ComponentDrill
T5C0.800
; #@! TA.AperFunction,Plated,PTH,ComponentDrill
T6C0.900
; #@! TA.AperFunction,Plated,PTH,ComponentDrill
T7C1.000
; #@! TA.AperFunction,Plated,PTH,ComponentDrill
T8C1.100
; #@! TA.AperFunction,Plated,PTH,ComponentDrill
T9C3.200
%
G90
G05
T1
X86.96Y-80.94
X86.99Y-82.3
X86.99Y-85.64
X86.99Y-95.62
X87.0Y-76.65
X87.0Y-83.92
X87.0Y-91.54
X87.01Y-79.42
X87.03Y-74.79
X87.03Y-77.97
X87.04Y-97.5
X87.07Y-87.67
X87.07Y-89.47
X87.07Y-99.68
X87.15Y-93.53
X87.57Y-73.35
X87.92Y-101.63
X88.6Y-91.54
X88.62Y-79.44
X88.62Y-87.64
X88.62Y-93.5
X88.62Y-97.59
X88.62Y-99.28
X88.64Y-77.99
X88.64Y-80.91
X88.64Y-82.28
X88.64Y-83.94
X88.65Y-74.71
X88.65Y-76.62
X88.65Y-89.58
X88.65Y-95.6
X88.66Y-85.68
X88.81Y-72.16
X89.18Y-100.99
X89.34Y-103.14
X90.05Y-73.44
X90.35Y-104.37
X90.41Y-70.87
X90.48Y-102.25
X90.98Y-72.28
X91.22Y-105.41
X91.59Y-103.22
X92.52Y-103.9
X92.67Y-105.82
X93.76Y-68.55
X93.87Y-69.92
X94.28Y-103.93
X94.4Y-105.74
X96.05Y-103.92
X96.13Y-105.74
X97.57Y-105.76
X97.58Y-103.93
X99.105Y-103.805
X99.19Y-105.51
X100.39Y-103.805
X100.48Y-105.41
X101.7Y-103.3
X102.53Y-102.48
X102.73Y-104.34
X103.41Y-101.63
X103.71Y-103.37
X104.71Y-102.62
X107.86Y-91.64
X111.96Y-92.9
T2
X91.57Y-80.97
X93.17Y-75.87
T3
X106.56Y-84.16
X106.56Y-85.43
X106.56Y-86.7
X106.61Y-94.51
X106.61Y-95.78
X106.61Y-97.05
T4
X111.88Y-98.98
X111.95Y-87.3
X114.42Y-98.98
X114.49Y-87.3
X116.96Y-98.98
X117.03Y-87.3
T5
X97.0Y-69.28
X97.01Y-58.3
X97.01Y-60.84
X97.01Y-63.38
X97.01Y-65.92
X97.09Y-100.42
X98.26Y-84.755
X98.26Y-87.255
X99.5Y-69.28
X104.28Y-81.22
X104.63Y-58.3
X104.63Y-60.84
X104.63Y-63.38
X104.63Y-65.92
X104.71Y-100.42
X107.01Y-54.3
X107.67Y-58.31
X107.67Y-65.93
X109.51Y-54.3
X111.02Y-102.92
X111.9Y-81.22
X117.04Y-91.17
X117.06Y-94.33
X118.64Y-102.92
X121.75Y-103.36
X121.75Y-110.98
X124.66Y-91.17
X124.68Y-94.33
X126.31Y-103.475
X126.31Y-111.095
X149.9Y-74.77
X149.9Y-77.27
X165.39Y-57.907
X165.39Y-61.707
T6
X121.77Y-113.43
X121.77Y-115.97
X126.4Y-113.435
X126.4Y-115.975
T7
X92.2Y-85.19
X92.2Y-87.73
X92.2Y-90.27
X92.2Y-92.81
X92.2Y-95.35
X92.2Y-97.89
X92.2Y-100.43
X131.27Y-70.96
X131.27Y-73.5
X131.27Y-76.04
X131.27Y-78.58
X131.27Y-81.12
X131.27Y-83.66
X131.27Y-86.2
X131.27Y-88.74
X131.27Y-91.28
X131.27Y-93.82
X131.27Y-96.36
X131.27Y-98.9
X131.27Y-101.44
X131.27Y-103.98
X131.27Y-106.52
X146.51Y-70.96
X146.51Y-73.5
X146.51Y-76.04
X146.51Y-78.58
X146.51Y-81.12
X146.51Y-83.66
X146.51Y-86.2
X146.51Y-88.74
X146.51Y-91.28
X146.51Y-93.82
X146.51Y-96.36
X146.51Y-98.9
X146.51Y-101.44
X146.51Y-103.98
X146.51Y-106.52
X174.77Y-54.84
X174.77Y-57.38
X174.77Y-59.92
X174.77Y-62.46
X174.77Y-65.0
X177.03Y-88.07
X177.03Y-90.61
X177.03Y-93.15
X177.03Y-95.69
X177.03Y-98.23
X177.03Y-100.77
X177.03Y-103.31
X177.03Y-105.85
X177.03Y-108.39
X177.03Y-110.93
T8
X103.28Y-76.44
X103.58Y-107.1
X113.44Y-76.44
X113.74Y-107.1
T9
X89.98Y-117.04
X90.04Y-47.06
X180.05Y-116.97
X180.11Y-46.98
M30
