%TF.GenerationSoftware,KiCad,Pcbnew,10.0.1*%
%TF.CreationDate,2026-04-27T10:12:53-05:00*%
%TF.ProjectId,350A_governor,33353041-5f67-46f7-9665-726e6f722e6b,rev?*%
%TF.SameCoordinates,Original*%
%TF.FileFunction,Copper,L1,Top*%
%TF.FilePolarity,Positive*%
%FSLAX46Y46*%
G04 Gerber Fmt 4.6, Leading zero omitted, Abs format (unit mm)*
G04 Created by KiCad (PCBNEW 10.0.1) date 2026-04-27 10:12:53*
%MOMM*%
%LPD*%
G01*
G04 APERTURE LIST*
G04 Aperture macros list*
%AMRoundRect*
0 Rectangle with rounded corners*
0 $1 Rounding radius*
0 $2 $3 $4 $5 $6 $7 $8 $9 X,Y pos of 4 corners*
0 Add a 4 corners polygon primitive as box body*
4,1,4,$2,$3,$4,$5,$6,$7,$8,$9,$2,$3,0*
0 Add four circle primitives for the rounded corners*
1,1,$1+$1,$2,$3*
1,1,$1+$1,$4,$5*
1,1,$1+$1,$6,$7*
1,1,$1+$1,$8,$9*
0 Add four rect primitives between the rounded corners*
20,1,$1+$1,$2,$3,$4,$5,0*
20,1,$1+$1,$4,$5,$6,$7,0*
20,1,$1+$1,$6,$7,$8,$9,0*
20,1,$1+$1,$8,$9,$2,$3,0*%
G04 Aperture macros list end*
%TA.AperFunction,ComponentPad*%
%ADD10RoundRect,0.250000X-0.550000X-0.550000X0.550000X-0.550000X0.550000X0.550000X-0.550000X0.550000X0*%
%TD*%
%TA.AperFunction,ComponentPad*%
%ADD11C,1.600000*%
%TD*%
%TA.AperFunction,ComponentPad*%
%ADD12R,1.298000X1.298000*%
%TD*%
%TA.AperFunction,ComponentPad*%
%ADD13C,1.298000*%
%TD*%
%TA.AperFunction,ComponentPad*%
%ADD14O,1.600000X1.600000*%
%TD*%
%TA.AperFunction,ComponentPad*%
%ADD15C,5.600000*%
%TD*%
%TA.AperFunction,ComponentPad*%
%ADD16R,1.800000X1.800000*%
%TD*%
%TA.AperFunction,ComponentPad*%
%ADD17C,1.800000*%
%TD*%
%TA.AperFunction,ComponentPad*%
%ADD18R,1.600000X1.600000*%
%TD*%
%TA.AperFunction,ComponentPad*%
%ADD19R,1.700000X1.700000*%
%TD*%
%TA.AperFunction,ComponentPad*%
%ADD20O,1.700000X1.700000*%
%TD*%
%TA.AperFunction,ComponentPad*%
%ADD21RoundRect,0.249999X-0.850001X-0.850001X0.850001X-0.850001X0.850001X0.850001X-0.850001X0.850001X0*%
%TD*%
%TA.AperFunction,ComponentPad*%
%ADD22C,2.200000*%
%TD*%
%TA.AperFunction,ComponentPad*%
%ADD23R,1.500000X1.050000*%
%TD*%
%TA.AperFunction,ComponentPad*%
%ADD24O,1.500000X1.050000*%
%TD*%
%TA.AperFunction,ComponentPad*%
%ADD25C,1.270000*%
%TD*%
%TA.AperFunction,ComponentPad*%
%ADD26RoundRect,0.249999X0.850001X0.850001X-0.850001X0.850001X-0.850001X-0.850001X0.850001X-0.850001X0*%
%TD*%
%TA.AperFunction,ComponentPad*%
%ADD27RoundRect,0.250000X-0.550000X0.550000X-0.550000X-0.550000X0.550000X-0.550000X0.550000X0.550000X0*%
%TD*%
%TA.AperFunction,ViaPad*%
%ADD28C,0.600000*%
%TD*%
%TA.AperFunction,Conductor*%
%ADD29C,0.250000*%
%TD*%
%TA.AperFunction,Conductor*%
%ADD30C,1.000000*%
%TD*%
G04 APERTURE END LIST*
D10*
%TO.P,U1,1,NC_1*%
%TO.N,unconnected-(U1-NC-Pad1)*%
X97010000Y-58300000D03*
D11*
%TO.P,U1,2,A_2*%
%TO.N,/MAG_FILT*%
X97010000Y-60840000D03*
%TO.P,U1,3,C_3*%
%TO.N,GND*%
X97010000Y-63380000D03*
%TO.P,U1,4,NC_4*%
%TO.N,unconnected-(U1-NC-Pad4)*%
X97010000Y-65920000D03*
%TO.P,U1,5,GND_5*%
%TO.N,GND*%
X104630000Y-65920000D03*
%TO.P,U1,6,VO_6*%
%TO.N,/D2_RPM*%
X104630000Y-63380000D03*
%TO.P,U1,7,EN_7*%
%TO.N,GND*%
X104630000Y-60840000D03*
%TO.P,U1,8,VCC_8*%
%TO.N,/VCC5*%
X104630000Y-58300000D03*
%TD*%
D12*
%TO.P,Q4,1,E_1*%
%TO.N,GND*%
X111880000Y-98980000D03*
D13*
%TO.P,Q4,2,B_2*%
%TO.N,Net-(Q4-B)*%
X114420000Y-98980000D03*
%TO.P,Q4,3,C_3*%
%TO.N,/Q4_COLL*%
X116960000Y-98980000D03*
%TD*%
D11*
%TO.P,R3,1*%
%TO.N,/D8_INC_LED*%
X121750000Y-103360000D03*
D14*
%TO.P,R3,2*%
%TO.N,Net-(D1-A)*%
X121750000Y-110980000D03*
%TD*%
D15*
%TO.P,REF\u002A\u002A,1*%
%TO.N,GND*%
X180110000Y-46980000D03*
%TD*%
D16*
%TO.P,D2,1,K_1*%
%TO.N,GND*%
X126400000Y-115975000D03*
D17*
%TO.P,D2,2,A_2*%
%TO.N,Net-(D2-A)*%
X126400000Y-113435000D03*
%TD*%
D15*
%TO.P,REF\u002A\u002A,1*%
%TO.N,GND*%
X180050000Y-116970000D03*
%TD*%
D16*
%TO.P,D1,1,K_1*%
%TO.N,GND*%
X121770000Y-115970000D03*
D17*
%TO.P,D1,2,A_2*%
%TO.N,Net-(D1-A)*%
X121770000Y-113430000D03*
%TD*%
D18*
%TO.P,A1,1,D1/TX_1*%
%TO.N,unconnected-(A1-D1{slash}TX-Pad1)*%
X131270000Y-70960000D03*
D14*
%TO.P,A1,2,D0/RX_2*%
%TO.N,unconnected-(A1-D0{slash}RX-Pad2)*%
X131270000Y-73500000D03*
%TO.P,A1,3,~{RESET}_3*%
%TO.N,unconnected-(A1-~{RESET}-Pad3)*%
X131270000Y-76040000D03*
%TO.P,A1,4,GND_4*%
%TO.N,GND*%
X131270000Y-78580000D03*
%TO.P,A1,5,D2_5*%
%TO.N,/D2_RPM*%
X131270000Y-81120000D03*
%TO.P,A1,6,D3_6*%
%TO.N,/D3_SW1*%
X131270000Y-83660000D03*
%TO.P,A1,7,D4_7*%
%TO.N,/D4_SW2*%
X131270000Y-86200000D03*
%TO.P,A1,8,D5_8*%
%TO.N,/D5_SW3*%
X131270000Y-88740000D03*
%TO.P,A1,9,D6_9*%
%TO.N,/D6_INC*%
X131270000Y-91280000D03*
%TO.P,A1,10,D7_10*%
%TO.N,/D7_DEC*%
X131270000Y-93820000D03*
%TO.P,A1,11,D8_11*%
%TO.N,/D8_INC_LED*%
X131270000Y-96360000D03*
%TO.P,A1,12,D9_12*%
%TO.N,/D9_DEC_LED*%
X131270000Y-98900000D03*
%TO.P,A1,13,D10_13*%
%TO.N,/D10_SW4*%
X131270000Y-101440000D03*
%TO.P,A1,14,D11_14*%
%TO.N,/D11_SW5*%
X131270000Y-103980000D03*
%TO.P,A1,15,D12_15*%
%TO.N,unconnected-(A1-D12-Pad15)*%
X131270000Y-106520000D03*
%TO.P,A1,16,D13_16*%
%TO.N,unconnected-(A1-D13-Pad16)*%
X146510000Y-106520000D03*
%TO.P,A1,17,3V3_17*%
%TO.N,unconnected-(A1-3V3-Pad17)*%
X146510000Y-103980000D03*
%TO.P,A1,18,AREF_18*%
%TO.N,unconnected-(A1-AREF-Pad18)*%
X146510000Y-101440000D03*
%TO.P,A1,19,A0_19*%
%TO.N,unconnected-(A1-A0-Pad19)*%
X146510000Y-98900000D03*
%TO.P,A1,20,A1_20*%
%TO.N,unconnected-(A1-A1-Pad20)*%
X146510000Y-96360000D03*
%TO.P,A1,21,A2_21*%
%TO.N,unconnected-(A1-A2-Pad21)*%
X146510000Y-93820000D03*
%TO.P,A1,22,A3_22*%
%TO.N,unconnected-(A1-A3-Pad22)*%
X146510000Y-91280000D03*
%TO.P,A1,23,A4_23*%
%TO.N,/SDA*%
X146510000Y-88740000D03*
%TO.P,A1,24,A5_24*%
%TO.N,/SCL*%
X146510000Y-86200000D03*
%TO.P,A1,25,A6_25*%
%TO.N,unconnected-(A1-A6-Pad25)*%
X146510000Y-83660000D03*
%TO.P,A1,26,A7_26*%
%TO.N,unconnected-(A1-A7-Pad26)*%
X146510000Y-81120000D03*
%TO.P,A1,27,+5V_27*%
%TO.N,/VCC5*%
X146510000Y-78580000D03*
%TO.P,A1,28,~{RESET}_28*%
%TO.N,unconnected-(A1-~{RESET}-Pad28)*%
X146510000Y-76040000D03*
%TO.P,A1,29,GND_29*%
%TO.N,GND*%
X146510000Y-73500000D03*
%TO.P,A1,30,VIN_30*%
%TO.N,unconnected-(A1-VIN-Pad30)*%
X146510000Y-70960000D03*
%TD*%
D19*
%TO.P,J1,1,Pin_1_1*%
%TO.N,/12V_IN*%
X92200000Y-85190000D03*
D20*
%TO.P,J1,2,Pin_2_2*%
%TO.N,GND*%
X92200000Y-87730000D03*
%TO.P,J1,3,Pin_3_3*%
%TO.N,/INC_RELAY*%
X92200000Y-90270000D03*
%TO.P,J1,4,Pin_4_4*%
%TO.N,/DEC_RELAY*%
X92200000Y-92810000D03*
%TO.P,J1,5,Pin_5_5*%
%TO.N,GND*%
X92200000Y-95350000D03*
%TO.P,J1,6,Pin_6_6*%
%TO.N,unconnected-(J1-Pin_6-Pad6)*%
X92200000Y-97890000D03*
%TO.P,J1,7,Pin_7_7*%
%TO.N,/MAG_LEAD*%
X92200000Y-100430000D03*
%TD*%
D21*
%TO.P,D3,1,K_1*%
%TO.N,/12V_RAW*%
X103280000Y-76440000D03*
D22*
%TO.P,D3,2,A_2*%
%TO.N,/DEC_RELAY*%
X113440000Y-76440000D03*
%TD*%
D11*
%TO.P,R6,1*%
%TO.N,/D7_DEC*%
X124680000Y-94330000D03*
D14*
%TO.P,R6,2*%
%TO.N,Net-(Q4-B)*%
X117060000Y-94330000D03*
%TD*%
D11*
%TO.P,C1,1*%
%TO.N,/MAG_FILT*%
X97000000Y-69280000D03*
%TO.P,C1,2*%
%TO.N,GND*%
X99500000Y-69280000D03*
%TD*%
%TO.P,C4,1*%
%TO.N,/VCC5*%
X149900000Y-77270000D03*
%TO.P,C4,2*%
%TO.N,GND*%
X149900000Y-74770000D03*
%TD*%
%TO.P,R7,1*%
%TO.N,/Q3_COLL*%
X111900000Y-81220000D03*
D14*
%TO.P,R7,2*%
%TO.N,/12V_RAW*%
X104280000Y-81220000D03*
%TD*%
D23*
%TO.P,Q2,1,E_1*%
%TO.N,/12V_RAW*%
X106610000Y-94510000D03*
D24*
%TO.P,Q2,2,B_2*%
%TO.N,/Q4_COLL*%
X106610000Y-95780000D03*
%TO.P,Q2,3,C_3*%
%TO.N,/DEC_RELAY*%
X106610000Y-97050000D03*
%TD*%
D15*
%TO.P,REF\u002A\u002A,1*%
%TO.N,GND*%
X89980000Y-117040000D03*
%TD*%
D11*
%TO.P,R1,1*%
%TO.N,/MAG_LEAD*%
X97090000Y-100420000D03*
D14*
%TO.P,R1,2*%
%TO.N,/MAG_FILT*%
X104710000Y-100420000D03*
%TD*%
D25*
%TO.P,F1,1,A_1*%
%TO.N,/12V_IN*%
X91570000Y-80970000D03*
%TO.P,F1,2,B_2*%
%TO.N,/12V_RAW*%
X93170000Y-75870000D03*
%TD*%
D11*
%TO.P,C5,1*%
%TO.N,/VCC5*%
X107010000Y-54300000D03*
%TO.P,C5,2*%
%TO.N,GND*%
X109510000Y-54300000D03*
%TD*%
%TO.P,R2,1*%
%TO.N,/VCC5*%
X107670000Y-58310000D03*
D14*
%TO.P,R2,2*%
%TO.N,/D2_RPM*%
X107670000Y-65930000D03*
%TD*%
D19*
%TO.P,J2,1,Pin_1_1*%
%TO.N,/VCC5*%
X177030000Y-88070000D03*
D20*
%TO.P,J2,2,Pin_2_2*%
%TO.N,GND*%
X177030000Y-90610000D03*
%TO.P,J2,3,Pin_3_3*%
%TO.N,/SDA*%
X177030000Y-93150000D03*
%TO.P,J2,4,Pin_4_4*%
%TO.N,/SCL*%
X177030000Y-95690000D03*
%TO.P,J2,5,Pin_5_5*%
%TO.N,/D3_SW1*%
X177030000Y-98230000D03*
%TO.P,J2,6,Pin_6_6*%
%TO.N,/D4_SW2*%
X177030000Y-100770000D03*
%TO.P,J2,7,Pin_7_7*%
%TO.N,/D5_SW3*%
X177030000Y-103310000D03*
%TO.P,J2,8,Pin_8_8*%
%TO.N,/D10_SW4*%
X177030000Y-105850000D03*
%TO.P,J2,9,Pin_9_9*%
%TO.N,/D11_SW5*%
X177030000Y-108390000D03*
%TO.P,J2,10,Pin_10_10*%
%TO.N,GND*%
X177030000Y-110930000D03*
%TD*%
D23*
%TO.P,Q1,1,E_1*%
%TO.N,/12V_RAW*%
X106560000Y-86700000D03*
D24*
%TO.P,Q1,2,B_2*%
%TO.N,/Q3_COLL*%
X106560000Y-85430000D03*
%TO.P,Q1,3,C_3*%
%TO.N,/INC_RELAY*%
X106560000Y-84160000D03*
%TD*%
D11*
%TO.P,R4,1*%
%TO.N,/D9_DEC_LED*%
X126310000Y-103475000D03*
D14*
%TO.P,R4,2*%
%TO.N,Net-(D2-A)*%
X126310000Y-111095000D03*
%TD*%
D11*
%TO.P,R8,1*%
%TO.N,/12V_RAW*%
X111020000Y-102920000D03*
D14*
%TO.P,R8,2*%
%TO.N,/Q4_COLL*%
X118640000Y-102920000D03*
%TD*%
D12*
%TO.P,Q3,1,E_1*%
%TO.N,GND*%
X111950000Y-87300000D03*
D13*
%TO.P,Q3,2,B_2*%
%TO.N,Net-(Q3-B)*%
X114490000Y-87300000D03*
%TO.P,Q3,3,C_3*%
%TO.N,/Q3_COLL*%
X117030000Y-87300000D03*
%TD*%
D18*
%TO.P,C2,1,+_1*%
%TO.N,/12V_IN*%
X98260000Y-84754888D03*
D11*
%TO.P,C2,2,-_2*%
%TO.N,GND*%
X98260000Y-87254888D03*
%TD*%
D19*
%TO.P,PS1,1,Pin_1_1*%
%TO.N,/12V_RAW*%
X174770000Y-54840000D03*
D20*
%TO.P,PS1,2,Pin_2_2*%
%TO.N,GND*%
X174770000Y-57380000D03*
%TO.P,PS1,3,Pin_3_3*%
%TO.N,/VCC5*%
X174770000Y-59920000D03*
%TO.P,PS1,4,Pin_4_4*%
%TO.N,GND*%
X174770000Y-62460000D03*
%TO.P,PS1,5,Pin_5_5*%
%TO.N,unconnected-(PS1-Pin_5-Pad5)*%
X174770000Y-65000000D03*
%TD*%
D15*
%TO.P,REF\u002A\u002A,1*%
%TO.N,GND*%
X90040000Y-47060000D03*
%TD*%
D26*
%TO.P,D4,1,K_1*%
%TO.N,/12V_RAW*%
X113740000Y-107100000D03*
D22*
%TO.P,D4,2,A_2*%
%TO.N,/INC_RELAY*%
X103580000Y-107100000D03*
%TD*%
D11*
%TO.P,R5,1*%
%TO.N,/D6_INC*%
X124660000Y-91170000D03*
D14*
%TO.P,R5,2*%
%TO.N,Net-(Q3-B)*%
X117040000Y-91170000D03*
%TD*%
D27*
%TO.P,C3,1,+_1*%
%TO.N,/VCC5*%
X165390000Y-57907349D03*
D11*
%TO.P,C3,2,-_2*%
%TO.N,GND*%
X165390000Y-61707349D03*
%TD*%
D28*
%TO.N,GND*%
X90050000Y-73440000D03*
X100390000Y-103805000D03*
X86990000Y-95620000D03*
X102530000Y-102480000D03*
X88650000Y-95600000D03*
X103410000Y-101630000D03*
X92670000Y-105820000D03*
X87150000Y-93530000D03*
X86990000Y-85640000D03*
X91590000Y-103220000D03*
X88810000Y-72160000D03*
X88620000Y-87640000D03*
X97570000Y-105760000D03*
X87000000Y-91540000D03*
X87570000Y-73350000D03*
X90350000Y-104370000D03*
X94280000Y-103930000D03*
X88660000Y-85680000D03*
X96130000Y-105740000D03*
X89340000Y-103140000D03*
X90980000Y-72280000D03*
X88650000Y-76620000D03*
X99190000Y-105510000D03*
X87070000Y-87670000D03*
X103710000Y-103370000D03*
X88650000Y-89580000D03*
X101700000Y-103300000D03*
X90410000Y-70870000D03*
X90480000Y-102250000D03*
X87000000Y-76650000D03*
X88620000Y-93500000D03*
X87030000Y-77970000D03*
X87920000Y-101630000D03*
X88640000Y-82280000D03*
X88640000Y-83940000D03*
X86990000Y-82300000D03*
X91220000Y-105410000D03*
X87070000Y-99680000D03*
X93760000Y-68550000D03*
X88640000Y-77990000D03*
X87010000Y-79420000D03*
X87030000Y-74790000D03*
X99104601Y-103805000D03*
X88600000Y-91540000D03*
X96050000Y-103920000D03*
X100480000Y-105410000D03*
X93870000Y-69920000D03*
X102730000Y-104340000D03*
X86960000Y-80940000D03*
X92520000Y-103900000D03*
X97580000Y-103930000D03*
X104710000Y-102620000D03*
X87070000Y-89470000D03*
X88650000Y-74710000D03*
X87000000Y-83920000D03*
X87040000Y-97500000D03*
X88620000Y-79440000D03*
X88620000Y-99280000D03*
X94400000Y-105740000D03*
X89180000Y-100990000D03*
X88620000Y-97590000D03*
X88640000Y-80910000D03*
%TO.N,/Q4_COLL*%
X107860000Y-91640000D03*
X111960000Y-92900000D03*
%TD*%
%TO.N,/MAG_FILT*%
D29*
X87810000Y-74550000D02*
X87810000Y-100590000D01*
X87810000Y-100590000D02*
X91900000Y-104680000D01*
X95840000Y-69280000D02*
X97000000Y-69280000D01*
X97010000Y-60840000D02*
X95300000Y-60840000D01*
X101410000Y-104680000D02*
X104470000Y-101620000D01*
X91900000Y-104680000D02*
X101410000Y-104680000D01*
X104710000Y-101370000D02*
X104710000Y-100420000D01*
X95300000Y-60840000D02*
X94220000Y-61920000D01*
X97000000Y-69280000D02*
X93080000Y-69280000D01*
X94220000Y-67660000D02*
X95840000Y-69280000D01*
X104470000Y-101610000D02*
X104710000Y-101370000D01*
X93080000Y-69280000D02*
X87810000Y-74550000D01*
X94220000Y-61920000D02*
X94220000Y-67660000D01*
X104470000Y-101620000D02*
X104470000Y-101610000D01*
%TO.N,/D2_RPM*%
D30*
X104630000Y-63380000D02*
X106310000Y-63380000D01*
X106310000Y-63380000D02*
X107670000Y-64740000D01*
X107670000Y-64740000D02*
X107670000Y-65930000D01*
X112130000Y-65930000D02*
X107670000Y-65930000D01*
D29*
X107180000Y-65930000D02*
X107670000Y-65930000D01*
D30*
X127320000Y-81120000D02*
X112130000Y-65930000D01*
X131270000Y-81120000D02*
X127320000Y-81120000D01*
%TO.N,Net-(Q4-B)*%
X114420000Y-98980000D02*
X114420000Y-95600000D01*
X115690000Y-94330000D02*
X117060000Y-94330000D01*
X114420000Y-95600000D02*
X115690000Y-94330000D01*
%TO.N,/Q4_COLL*%
X118640000Y-100660000D02*
X116960000Y-98980000D01*
X110650000Y-91590000D02*
X107910000Y-91590000D01*
X111960000Y-92900000D02*
X110650000Y-91590000D01*
X118640000Y-102920000D02*
X118640000Y-100660000D01*
X107910000Y-91590000D02*
X107860000Y-91640000D01*
%TO.N,/D8_INC_LED*%
D29*
X121140000Y-103115000D02*
X121505000Y-103115000D01*
D30*
X131270000Y-96360000D02*
X125640000Y-96360000D01*
X125640000Y-96360000D02*
X121750000Y-100250000D01*
D29*
X121505000Y-103115000D02*
X121750000Y-103360000D01*
D30*
X121750000Y-100250000D02*
X121750000Y-103360000D01*
%TO.N,Net-(D1-A)*%
D29*
X121750000Y-110980000D02*
X121750000Y-113410000D01*
X121750000Y-113410000D02*
X121770000Y-113430000D01*
%TO.N,Net-(D2-A)*%
X126310000Y-111095000D02*
X127010000Y-111795000D01*
X127010000Y-112825000D02*
X126400000Y-113435000D01*
X127010000Y-111795000D02*
X127010000Y-112825000D01*
%TO.N,/D3_SW1*%
X137780000Y-90170000D02*
X146027595Y-90170000D01*
X164390000Y-90170000D02*
X171390000Y-97170000D01*
X146027595Y-90170000D02*
X146043595Y-90154000D01*
X146976405Y-90154000D02*
X146992405Y-90170000D01*
X146043595Y-90154000D02*
X146976405Y-90154000D01*
X175970000Y-97170000D02*
X177030000Y-98230000D01*
X146992405Y-90170000D02*
X164390000Y-90170000D01*
X171390000Y-97170000D02*
X175970000Y-97170000D01*
X131270000Y-83660000D02*
X137780000Y-90170000D01*
%TO.N,/D4_SW2*%
X176180000Y-99920000D02*
X177030000Y-100770000D01*
X131690000Y-86200000D02*
X138184000Y-92694000D01*
X131270000Y-86200000D02*
X131690000Y-86200000D01*
X162974000Y-92694000D02*
X170200000Y-99920000D01*
X138184000Y-92694000D02*
X162974000Y-92694000D01*
X170200000Y-99920000D02*
X176180000Y-99920000D01*
%TO.N,/D5_SW3*%
X137580000Y-95050000D02*
X159800000Y-95050000D01*
X168060000Y-103310000D02*
X177030000Y-103310000D01*
X159800000Y-95050000D02*
X168060000Y-103310000D01*
X131270000Y-88740000D02*
X137580000Y-95050000D01*
%TO.N,/D6_INC*%
D30*
X124660000Y-91170000D02*
X131160000Y-91170000D01*
X131160000Y-91170000D02*
X131270000Y-91280000D01*
%TO.N,/D7_DEC*%
X131210000Y-93880000D02*
X131270000Y-93820000D01*
X124680000Y-94330000D02*
X125130000Y-93880000D01*
X125130000Y-93880000D02*
X131210000Y-93880000D01*
%TO.N,/D9_DEC_LED*%
X128360000Y-98900000D02*
X126310000Y-100950000D01*
X131270000Y-98900000D02*
X128360000Y-98900000D01*
X126310000Y-100950000D02*
X126310000Y-103475000D01*
%TO.N,/D10_SW4*%
D29*
X131270000Y-101440000D02*
X137470000Y-101440000D01*
X163640000Y-106710000D02*
X164500000Y-105850000D01*
X137470000Y-101440000D02*
X141080000Y-105050000D01*
X164500000Y-105850000D02*
X177030000Y-105850000D01*
X141080000Y-105050000D02*
X141080000Y-109540000D01*
X163640000Y-108610000D02*
X163640000Y-106710000D01*
X160730000Y-111520000D02*
X163640000Y-108610000D01*
X143060000Y-111520000D02*
X160730000Y-111520000D01*
X141080000Y-109540000D02*
X143060000Y-111520000D01*
%TO.N,/D11_SW5*%
X177030000Y-108390000D02*
X165630000Y-108390000D01*
X142430000Y-112280000D02*
X140150000Y-110000000D01*
X138610000Y-103980000D02*
X131270000Y-103980000D01*
X140150000Y-110000000D02*
X140150000Y-105520000D01*
X140150000Y-105520000D02*
X138610000Y-103980000D01*
X161740000Y-112280000D02*
X142430000Y-112280000D01*
X165630000Y-108390000D02*
X161740000Y-112280000D01*
%TO.N,/SDA*%
X170100000Y-88740000D02*
X174510000Y-93150000D01*
X174510000Y-93150000D02*
X177030000Y-93150000D01*
X146510000Y-88740000D02*
X170100000Y-88740000D01*
%TO.N,/SCL*%
X175700000Y-82860000D02*
X176150000Y-82860000D01*
X146510000Y-86200000D02*
X160160000Y-86200000D01*
X180580000Y-94270000D02*
X179160000Y-95690000D01*
X175620000Y-82780000D02*
X175700000Y-82860000D01*
X180580000Y-87290000D02*
X180580000Y-94270000D01*
X163580000Y-82780000D02*
X175620000Y-82780000D01*
X160160000Y-86200000D02*
X163580000Y-82780000D01*
X176150000Y-82860000D02*
X180580000Y-87290000D01*
X179160000Y-95690000D02*
X177030000Y-95690000D01*
%TO.N,/INC_RELAY*%
D30*
X104780000Y-84160000D02*
X106560000Y-84160000D01*
X92270000Y-90200000D02*
X98740000Y-90200000D01*
X92200000Y-90270000D02*
X92270000Y-90200000D01*
X98740000Y-90200000D02*
X104780000Y-84160000D01*
%TO.N,/DEC_RELAY*%
X100800000Y-94990000D02*
X102860000Y-97050000D01*
X92200000Y-92810000D02*
X94380000Y-94990000D01*
X102860000Y-97050000D02*
X106610000Y-97050000D01*
X94380000Y-94990000D02*
X100800000Y-94990000D01*
%TO.N,/MAG_LEAD*%
D29*
X92200000Y-100430000D02*
X97080000Y-100430000D01*
X97080000Y-100430000D02*
X97090000Y-100420000D01*
%TO.N,/12V_RAW*%
D30*
X112490000Y-102920000D02*
X113740000Y-104170000D01*
X106530000Y-94430000D02*
X106610000Y-94510000D01*
X109850000Y-96270000D02*
X109850000Y-101750000D01*
X103280000Y-80220000D02*
X104280000Y-81220000D01*
X106530000Y-86730000D02*
X106530000Y-94430000D01*
X106610000Y-94510000D02*
X108090000Y-94510000D01*
X113740000Y-104170000D02*
X113740000Y-107100000D01*
X111020000Y-102920000D02*
X112490000Y-102920000D01*
X103280000Y-76440000D02*
X93740000Y-76440000D01*
X109850000Y-101750000D02*
X111020000Y-102920000D01*
X93740000Y-76440000D02*
X93170000Y-75870000D01*
X103280000Y-76440000D02*
X103280000Y-80220000D01*
X106560000Y-86700000D02*
X106530000Y-86730000D01*
X108090000Y-94510000D02*
X109850000Y-96270000D01*
%TO.N,/Q3_COLL*%
X111900000Y-83440000D02*
X109910000Y-85430000D01*
X111900000Y-81220000D02*
X114530000Y-81220000D01*
X111900000Y-81220000D02*
X111900000Y-83440000D01*
X109910000Y-85430000D02*
X106560000Y-85430000D01*
X114530000Y-81220000D02*
X117070000Y-83760000D01*
X117070000Y-87260000D02*
X117030000Y-87300000D01*
X117070000Y-83760000D02*
X117070000Y-87260000D01*
%TO.N,Net-(Q3-B)*%
X114490000Y-89830000D02*
X115830000Y-91170000D01*
X115830000Y-91170000D02*
X117040000Y-91170000D01*
X114490000Y-87300000D02*
X114490000Y-89830000D01*
%TD*%
M02*
