%TF.GenerationSoftware,KiCad,Pcbnew,10.0.1*%
%TF.CreationDate,2026-04-27T10:12:54-05:00*%
%TF.ProjectId,350A_governor,33353041-5f67-46f7-9665-726e6f722e6b,rev?*%
%TF.SameCoordinates,Original*%
%TF.FileFunction,Soldermask,Top*%
%TF.FilePolarity,Negative*%
%FSLAX46Y46*%
G04 Gerber Fmt 4.6, Leading zero omitted, Abs format (unit mm)*
G04 Created by KiCad (PCBNEW 10.0.1) date 2026-04-27 10:12:54*
%MOMM*%
%LPD*%
G01*
G04 APERTURE LIST*
G04 Aperture macros list*
%AMRoundRect*
0 Rectangle with rounded corners*
0 $1 Rounding radius*
0 $2 $3 $4 $5 $6 $7 $8 $9 X,Y pos of 4 corners*
0 Add a 4 corners polygon primitive as box body*
4,1,4,$2,$3,$4,$5,$6,$7,$8,$9,$2,$3,0*
0 Add four circle primitives for the rounded corners*
1,1,$1+$1,$2,$3*
1,1,$1+$1,$4,$5*
1,1,$1+$1,$6,$7*
1,1,$1+$1,$8,$9*
0 Add four rect primitives between the rounded corners*
20,1,$1+$1,$2,$3,$4,$5,0*
20,1,$1+$1,$4,$5,$6,$7,0*
20,1,$1+$1,$6,$7,$8,$9,0*
20,1,$1+$1,$8,$9,$2,$3,0*%
G04 Aperture macros list end*
%ADD10RoundRect,0.250000X-0.550000X-0.550000X0.550000X-0.550000X0.550000X0.550000X-0.550000X0.550000X0*%
%ADD11C,1.600000*%
%ADD12RoundRect,0.102000X-0.649000X-0.649000X0.649000X-0.649000X0.649000X0.649000X-0.649000X0.649000X0*%
%ADD13C,1.502000*%
%ADD14O,1.600000X1.600000*%
%ADD15C,5.600000*%
%ADD16R,1.800000X1.800000*%
%ADD17C,1.800000*%
%ADD18R,1.600000X1.600000*%
%ADD19R,1.700000X1.700000*%
%ADD20O,1.700000X1.700000*%
%ADD21RoundRect,0.249999X-0.850001X-0.850001X0.850001X-0.850001X0.850001X0.850001X-0.850001X0.850001X0*%
%ADD22C,2.200000*%
%ADD23R,1.500000X1.050000*%
%ADD24O,1.500000X1.050000*%
%ADD25C,1.270000*%
%ADD26RoundRect,0.249999X0.850001X0.850001X-0.850001X0.850001X-0.850001X-0.850001X0.850001X-0.850001X0*%
%ADD27RoundRect,0.250000X-0.550000X0.550000X-0.550000X-0.550000X0.550000X-0.550000X0.550000X0.550000X0*%
G04 APERTURE END LIST*
D10*
%TO.C,U1*%
X97010000Y-58300000D03*
D11*
X97010000Y-60840000D03*
X97010000Y-63380000D03*
X97010000Y-65920000D03*
X104630000Y-65920000D03*
X104630000Y-63380000D03*
X104630000Y-60840000D03*
X104630000Y-58300000D03*
%TD*%
D12*
%TO.C,Q4*%
X111880000Y-98980000D03*
D13*
X114420000Y-98980000D03*
X116960000Y-98980000D03*
%TD*%
D11*
%TO.C,R3*%
X121750000Y-103360000D03*
D14*
X121750000Y-110980000D03*
%TD*%
D15*
%TO.C,REF\u002A\u002A*%
X180110000Y-46980000D03*
%TD*%
D16*
%TO.C,D2*%
X126400000Y-115975000D03*
D17*
X126400000Y-113435000D03*
%TD*%
D15*
%TO.C,REF\u002A\u002A*%
X180050000Y-116970000D03*
%TD*%
D16*
%TO.C,D1*%
X121770000Y-115970000D03*
D17*
X121770000Y-113430000D03*
%TD*%
D18*
%TO.C,A1*%
X131270000Y-70960000D03*
D14*
X131270000Y-73500000D03*
X131270000Y-76040000D03*
X131270000Y-78580000D03*
X131270000Y-81120000D03*
X131270000Y-83660000D03*
X131270000Y-86200000D03*
X131270000Y-88740000D03*
X131270000Y-91280000D03*
X131270000Y-93820000D03*
X131270000Y-96360000D03*
X131270000Y-98900000D03*
X131270000Y-101440000D03*
X131270000Y-103980000D03*
X131270000Y-106520000D03*
X146510000Y-106520000D03*
X146510000Y-103980000D03*
X146510000Y-101440000D03*
X146510000Y-98900000D03*
X146510000Y-96360000D03*
X146510000Y-93820000D03*
X146510000Y-91280000D03*
X146510000Y-88740000D03*
X146510000Y-86200000D03*
X146510000Y-83660000D03*
X146510000Y-81120000D03*
X146510000Y-78580000D03*
X146510000Y-76040000D03*
X146510000Y-73500000D03*
X146510000Y-70960000D03*
%TD*%
D19*
%TO.C,J1*%
X92200000Y-85190000D03*
D20*
X92200000Y-87730000D03*
X92200000Y-90270000D03*
X92200000Y-92810000D03*
X92200000Y-95350000D03*
X92200000Y-97890000D03*
X92200000Y-100430000D03*
%TD*%
D21*
%TO.C,D3*%
X103280000Y-76440000D03*
D22*
X113440000Y-76440000D03*
%TD*%
D11*
%TO.C,R6*%
X124680000Y-94330000D03*
D14*
X117060000Y-94330000D03*
%TD*%
D11*
%TO.C,C1*%
X97000000Y-69280000D03*
X99500000Y-69280000D03*
%TD*%
%TO.C,C4*%
X149900000Y-77270000D03*
X149900000Y-74770000D03*
%TD*%
%TO.C,R7*%
X111900000Y-81220000D03*
D14*
X104280000Y-81220000D03*
%TD*%
D23*
%TO.C,Q2*%
X106610000Y-94510000D03*
D24*
X106610000Y-95780000D03*
X106610000Y-97050000D03*
%TD*%
D15*
%TO.C,REF\u002A\u002A*%
X89980000Y-117040000D03*
%TD*%
D11*
%TO.C,R1*%
X97090000Y-100420000D03*
D14*
X104710000Y-100420000D03*
%TD*%
D25*
%TO.C,F1*%
X91570000Y-80970000D03*
X93170000Y-75870000D03*
%TD*%
D11*
%TO.C,C5*%
X107010000Y-54300000D03*
X109510000Y-54300000D03*
%TD*%
%TO.C,R2*%
X107670000Y-58310000D03*
D14*
X107670000Y-65930000D03*
%TD*%
D19*
%TO.C,J2*%
X177030000Y-88070000D03*
D20*
X177030000Y-90610000D03*
X177030000Y-93150000D03*
X177030000Y-95690000D03*
X177030000Y-98230000D03*
X177030000Y-100770000D03*
X177030000Y-103310000D03*
X177030000Y-105850000D03*
X177030000Y-108390000D03*
X177030000Y-110930000D03*
%TD*%
D23*
%TO.C,Q1*%
X106560000Y-86700000D03*
D24*
X106560000Y-85430000D03*
X106560000Y-84160000D03*
%TD*%
D11*
%TO.C,R4*%
X126310000Y-103475000D03*
D14*
X126310000Y-111095000D03*
%TD*%
D11*
%TO.C,R8*%
X111020000Y-102920000D03*
D14*
X118640000Y-102920000D03*
%TD*%
D12*
%TO.C,Q3*%
X111950000Y-87300000D03*
D13*
X114490000Y-87300000D03*
X117030000Y-87300000D03*
%TD*%
D18*
%TO.C,C2*%
X98260000Y-84754888D03*
D11*
X98260000Y-87254888D03*
%TD*%
D19*
%TO.C,PS1*%
X174770000Y-54840000D03*
D20*
X174770000Y-57380000D03*
X174770000Y-59920000D03*
X174770000Y-62460000D03*
X174770000Y-65000000D03*
%TD*%
D15*
%TO.C,REF\u002A\u002A*%
X90040000Y-47060000D03*
%TD*%
D26*
%TO.C,D4*%
X113740000Y-107100000D03*
D22*
X103580000Y-107100000D03*
%TD*%
D11*
%TO.C,R5*%
X124660000Y-91170000D03*
D14*
X117040000Y-91170000D03*
%TD*%
D27*
%TO.C,C3*%
X165390000Y-57907349D03*
D11*
X165390000Y-61707349D03*
%TD*%
M02*
